<svg width="52" height="34" viewBox="0 0 52 34" fill="none" xmlns="http://www.w3.org/2000/svg">
<path fill-rule="evenodd" clip-rule="evenodd" d="M41.7361 22.1524C41.5998 21.8422 41.2614 21.6726 40.9307 21.7586L23.6906 26.1173C23.6837 26.119 23.5977 26.1454 23.59 26.1479C23.5269 26.1658 23.4639 26.1863 23.3991 26.2144C21.501 27.0454 20.6095 29.2145 21.4124 31.0486C22.0013 32.3952 23.3428 33.1938 24.767 33.1938C25.2818 33.1938 25.8077 33.089 26.3131 32.8683C26.3761 32.8401 26.4341 32.8069 26.492 32.772C26.498 32.7685 26.5747 32.7242 26.5815 32.72L41.4796 23.0115C41.7634 22.8266 41.8716 22.4635 41.7361 22.1524Z" fill="#AB73F0"/>
<path fill-rule="evenodd" clip-rule="evenodd" d="M48.9496 33.1897C48.8073 33.1897 48.6633 33.1784 48.5184 33.1554C47.0039 32.9193 45.9692 31.5002 46.2061 29.9874C46.3698 28.9374 46.4524 27.8677 46.4524 26.8075C46.4524 15.53 37.2775 6.3542 26 6.3542C14.7225 6.3542 5.54756 15.53 5.54756 26.8075C5.54756 27.8677 5.63024 28.9374 5.79388 29.9874C6.03081 31.5002 4.99528 32.9193 3.48161 33.1554C1.97305 33.3949 0.549728 32.3576 0.313643 30.8431C0.104832 29.511 0 28.1541 0 26.8075C0 12.4702 11.6636 0.806641 26 0.806641C40.3364 0.806641 52 12.4702 52 26.8075C52 28.1541 51.8943 29.511 51.6864 30.8431C51.4733 32.2119 50.292 33.1897 48.9496 33.1897Z" fill="#AB73F0"/>
</svg>
