<svg width="52" height="50" viewBox="0 0 52 50" fill="none" xmlns="http://www.w3.org/2000/svg">
<path fill-rule="evenodd" clip-rule="evenodd" d="M49.337 16.7847L35.1364 14.7146L28.7898 1.84608C27.6521 -0.448455 24.357 -0.477534 23.2102 1.84608L16.8637 14.7146L2.66296 16.7847C0.116705 17.1536 -0.903797 20.2933 0.942738 22.0916L11.2168 32.1031L8.78597 46.2447C8.34887 48.801 11.0414 50.7166 13.2969 49.5207L26 42.8433L38.704 49.5207C40.9586 50.7066 43.6511 48.801 43.214 46.2447L40.7841 32.1031L51.0573 22.0916C52.9038 20.2933 51.8833 17.1536 49.337 16.7847ZM35.7779 30.4701L38.0815 43.922L26 37.5754L13.9185 43.922L16.2221 30.4701L6.44418 20.9448L19.9542 18.9811L26 6.73413L32.0458 18.9811L45.5558 20.9448L35.7779 30.4701Z" fill="#00CBC7"/>
</svg>
