<svg width="52" height="52" viewBox="0 0 52 52" fill="none" xmlns="http://www.w3.org/2000/svg">
<path fill-rule="evenodd" clip-rule="evenodd" d="M7.60693 7.60644C-2.53499 17.7484 -2.53499 34.2507 7.60693 44.3936C17.7489 54.5355 34.2511 54.5355 44.3931 44.3936C54.536 34.2507 54.535 17.7484 44.3931 7.60644C34.2511 -2.53548 17.7489 -2.53548 7.60693 7.60644ZM11.6962 40.3033C4.56065 33.1677 3.90426 21.9945 9.68031 14.0876L37.9129 42.3192C30.006 48.0962 18.8328 47.4398 11.6962 40.3033ZM42.0509 38.2786L13.7219 9.94958C21.6463 3.8804 33.0582 4.45012 40.3038 11.6957C47.5504 18.9423 48.1201 30.3542 42.0509 38.2786Z" fill="#FF6145"/>
</svg>
